<svg width="122" height="102" viewBox="0 0 122 102" fill="none" xmlns="http://www.w3.org/2000/svg">
<g filter="url(#filter0_f_158_3068)">
<ellipse cx="56.8501" cy="94.0157" rx="34.028" ry="6.93164" fill="#ABB3BF" fill-opacity="0.45"/>
</g>
<path d="M25.826 46.8109C25.826 46.8109 25.8264 46.8102 25.8273 46.809C25.8265 46.8102 25.8261 46.8109 25.826 46.8109ZM25.8429 46.7917C25.8476 46.787 25.8535 46.7815 25.8607 46.7751C25.9266 46.7172 26.0545 46.6374 26.2717 46.5465C26.7023 46.366 27.365 46.1895 28.2506 46.0236C30.0132 45.6935 32.5498 45.4249 35.6163 45.2168C41.7434 44.8008 49.922 44.6298 58.1076 44.6727C66.2928 44.7155 74.4731 44.9722 80.6025 45.4097C83.6697 45.6287 86.2103 45.892 87.9778 46.194C88.8655 46.3456 89.5346 46.5032 89.9722 46.6612C90.1764 46.7349 90.3044 46.7997 90.3758 46.8482C90.3615 47.2526 90.2761 48.0968 90.1231 49.3106C89.9566 50.6316 89.7146 52.3576 89.4131 54.356C88.8102 58.3525 87.9705 63.4314 87.0241 68.5259C86.0773 73.622 85.025 78.7265 83.9972 82.7773C83.4831 84.8035 82.9774 86.5571 82.4967 87.9106C82.2563 88.5875 82.0248 89.1566 81.805 89.6062C81.5815 90.0634 81.3847 90.3659 81.2237 90.5349C81.0845 90.6809 80.8057 90.857 80.3421 91.0409C79.8891 91.2206 79.3036 91.3911 78.5962 91.5497C77.1823 91.8669 75.3278 92.1272 73.171 92.3308C68.8602 92.7377 63.3912 92.9139 57.9298 92.8819C52.4688 92.8499 47.0289 92.6097 42.777 92.1867C40.6496 91.975 38.8309 91.7186 37.4599 91.4226C36.7737 91.2744 36.2114 91.1188 35.7835 90.9585C35.34 90.7924 35.099 90.642 34.9969 90.5349C34.8712 90.403 34.702 90.1375 34.4997 89.7057C34.3023 89.2846 34.0901 88.7426 33.8659 88.0908C33.4178 86.788 32.9326 85.0791 32.4297 83.0907C31.4244 79.1159 30.3567 74.0584 29.3793 68.9728C28.4022 63.8885 27.5167 58.783 26.8757 54.7145C26.5552 52.6801 26.2961 50.9072 26.1173 49.5271C25.9437 48.1874 25.8499 47.2465 25.8429 46.7917ZM90.4248 46.8873C90.4247 46.8873 90.4231 46.8858 90.4206 46.8827C90.4238 46.8857 90.425 46.8873 90.4248 46.8873Z" fill="#A6C1DF" stroke="#709BCA"/>
<circle cx="42.3568" cy="65.0288" r="4.41104" fill="black"/>
<path d="M51.5 74.3014C51.5 73.8987 51.6692 73.3304 52.0313 72.6788C52.3879 72.0369 52.9101 71.3536 53.5611 70.7283C54.8692 69.4719 56.642 68.5 58.5617 68.5C60.4815 68.5 62.2543 69.4719 63.5624 70.7283C64.2134 71.3536 64.7356 72.0369 65.0922 72.6788C65.4543 73.3304 65.6235 73.8987 65.6235 74.3014C65.6235 75.0254 65.039 75.7172 63.7212 76.2504C62.433 76.7716 60.6124 77.0602 58.5617 77.0602C56.5111 77.0602 54.6905 76.7716 53.4023 76.2504C52.0845 75.7172 51.5 75.0254 51.5 74.3014Z" fill="#CC988E" stroke="black"/>
<circle cx="44.2469" cy="64.3988" r="1.2603" fill="white"/>
<circle cx="73.8644" cy="65.0288" r="4.41104" fill="black"/>
<circle cx="75.7544" cy="64.3988" r="1.2603" fill="white"/>
<path d="M82.8528 40.6103C83.2611 40.628 83.6306 40.6517 83.9555 40.6808C83.8272 40.703 83.6913 40.7256 83.5482 40.7486C82.7656 40.8739 81.8096 41.0037 80.7398 41.149C79.9226 41.26 79.0389 41.38 78.1153 41.5139C75.9983 41.8209 73.7002 42.1975 71.6266 42.6948C69.5703 43.1881 67.6814 43.812 66.4095 44.6367C65.3823 45.2518 64.3238 45.9491 63.2949 46.6268C63.1875 46.6976 63.0804 46.7682 62.9737 46.8384C61.8365 47.5868 60.745 48.2971 59.7554 48.8519C58.7557 49.4125 57.9093 49.7853 57.2566 49.8969C56.9353 49.9519 56.6958 49.937 56.5212 49.8782C56.381 49.831 56.2613 49.7488 56.1599 49.608C56.1656 49.5954 56.1732 49.5802 56.1832 49.5619C56.2557 49.4296 56.4047 49.2405 56.6486 48.9963C57.1305 48.5138 57.8856 47.9109 58.8204 47.2384C60.6833 45.8981 63.1829 44.3354 65.431 42.99C66.4751 42.365 68.2091 41.8574 70.2894 41.4731C72.3536 41.0917 74.7026 40.8413 76.9361 40.7037C79.1697 40.5661 81.2759 40.542 82.8528 40.6103ZM56.1429 49.6552C56.1427 49.6553 56.143 49.6528 56.1445 49.6475C56.1439 49.6524 56.1432 49.655 56.1429 49.6552Z" fill="#79A690" stroke="#568A71"/>
<path d="M61.0723 42.6822L61.06 42.7037L61.0499 42.7264C59.976 45.1241 58.3486 48.7571 56.7639 51.6875C55.9697 53.1563 55.1992 54.4241 54.5256 55.268C54.1863 55.6931 53.8945 55.9813 53.6589 56.1384C53.543 56.2157 53.4602 56.248 53.4085 56.2589C53.3649 56.2681 53.3501 56.2615 53.3455 56.2594L53.3452 56.2592C53.345 56.2591 53.3447 56.259 53.3445 56.2589C53.3413 56.2577 53.3343 56.255 53.3216 56.2309C53.3033 56.1964 53.2788 56.1247 53.2693 55.9956C53.2499 55.7319 53.3001 55.3411 53.4329 54.8226C53.696 53.7951 54.2402 52.426 54.9222 50.9035C55.6014 49.3869 56.4051 47.7445 57.1763 46.1757C57.2235 46.0796 57.2706 45.9838 57.3176 45.8883C58.0351 44.429 58.7171 43.042 59.2246 41.9089C60.2541 39.6104 62.9419 36.5169 65.5468 34.0254C66.841 32.7877 68.0938 31.7184 69.0783 30.9904C69.4738 30.6979 69.8178 30.4666 70.0984 30.3026C69.9922 30.4854 69.8572 30.6991 69.6938 30.9425C69.0781 31.8601 68.1324 33.0954 67.0639 34.4696C66.8453 34.7507 66.6216 35.0376 66.3947 35.3286C64.4231 37.8571 62.2125 40.6919 61.0723 42.6822ZM70.6887 30.0343C70.6886 30.0344 70.6864 30.0347 70.6823 30.0349C70.6867 30.0342 70.6888 30.0342 70.6887 30.0343Z" fill="#79A690" stroke="#568A71"/>
<path d="M49.3967 46.1326C51.3242 47.4551 53.8031 49.6712 56.0042 51.6389C56.3116 51.9137 56.6136 52.1837 56.9079 52.4457C58.1194 53.5242 59.1981 54.4659 60.0098 55.0811C60.3881 55.3678 60.6859 55.5659 60.8996 55.6756C60.8987 55.601 60.8869 55.5062 60.8568 55.3862C60.7793 55.0774 60.5989 54.6824 60.3114 54.2112C59.7388 53.2727 58.8048 52.1328 57.6785 50.9378C55.4287 48.5508 52.4869 46.0224 50.3566 44.5608C48.2294 43.1012 43.8708 40.806 39.9487 38.9839C37.991 38.0745 36.1579 37.2903 34.7814 36.7913C34.3049 36.6186 33.8912 36.4831 33.5507 36.3885C33.798 36.5817 34.1057 36.8038 34.4681 37.0514C35.6479 37.8574 37.3317 38.8837 39.1829 39.9818C40.1469 40.5536 41.1567 41.145 42.1615 41.7334C44.9943 43.3925 47.7865 45.0278 49.3967 46.1326ZM32.9088 35.7815C32.9085 35.7814 32.9098 35.7844 32.9135 35.7908C32.9109 35.7848 32.9091 35.7816 32.9088 35.7815Z" fill="#79A690" stroke="#568A71"/>
<path d="M116.67 48.1608C117.281 49.0169 117.775 49.7576 118.142 50.3271C117.97 50.2665 117.782 50.2016 117.579 50.1331C116.31 49.7045 114.447 49.131 112.06 48.5473C107.286 47.38 100.415 46.1713 92.0102 46.0001C87.8788 45.9159 84.7269 45.1561 82.5733 44.0495C80.4127 42.9393 79.3201 41.5191 79.135 40.1274C78.9516 38.7481 79.6367 37.2101 81.4495 35.8C83.2623 34.3899 86.1528 33.1564 90.2012 32.4305C98.1428 31.0065 105.289 35.6952 110.519 40.8777C113.122 43.4572 115.221 46.1306 116.67 48.1608Z" fill="#79A690" stroke="#568A71"/>
<path d="M7.00409 47.3857C6.49554 48.4137 6.10271 49.2762 5.83239 49.8935C6.28343 49.735 6.86609 49.5344 7.56182 49.3036C9.32835 48.7176 11.8251 47.9364 14.7483 47.1553C20.5868 45.595 28.1583 44.0259 35.0174 44.0259C38.3215 44.0259 40.2791 43.0112 41.2411 41.6264C42.2055 40.2382 42.2683 38.3362 41.4738 36.3459C39.8837 32.3621 34.9386 28.2952 28.0652 28.2951C21.2664 28.2951 15.6137 33.8333 11.6055 39.5597C9.6156 42.4025 8.06132 45.2485 7.00409 47.3857Z" fill="#79A690" stroke="#568A71"/>
<path d="M114.78 26.286C115.447 25.8698 115.963 25.532 116.318 25.2943C116.174 25.1907 116.004 25.0693 115.808 24.9323C115.11 24.4446 114.091 23.7593 112.81 22.972C110.247 21.3966 106.641 19.4169 102.466 17.795C94.0958 14.5429 83.5599 12.7728 74.5301 18.3951C69.9654 21.2373 67.4882 24.1506 66.543 26.8025C65.6075 29.4271 66.1505 31.8529 67.7617 33.8333C71.0235 37.8428 78.7368 40.0666 87.469 37.843C96.2652 35.6032 103.626 32.3648 108.788 29.6861C111.368 28.347 113.397 27.1485 114.78 26.286Z" fill="#79A690" stroke="#568A71"/>
<path d="M36.1651 48.6557C49.1731 51.084 64.349 52.4779 80.9703 48.6557C97.5915 44.8335 80.9703 59.3576 80.9703 59.3576H36.1651C36.1651 59.3576 23.1571 46.2275 36.1651 48.6557Z" fill="#A6C1DF"/>
<path d="M26.2329 47.2286C27.2966 52.0155 91.6528 52.0155 90.0572 47.2286" stroke="#709BCA"/>
<defs>
<filter id="filter0_f_158_3068" x="21.822" y="86.0841" width="70.056" height="15.8633" filterUnits="userSpaceOnUse" color-interpolation-filters="sRGB">
<feFlood flood-opacity="0" result="BackgroundImageFix"/>
<feBlend mode="normal" in="SourceGraphic" in2="BackgroundImageFix" result="shape"/>
<feGaussianBlur stdDeviation="0.5" result="effect1_foregroundBlur_158_3068"/>
</filter>
</defs>
</svg>
