<svg width="89" height="121" viewBox="0 0 89 121" fill="none" xmlns="http://www.w3.org/2000/svg">
<g filter="url(#filter0_f_158_842)">
<ellipse cx="39.8501" cy="113.016" rx="34.028" ry="6.93164" fill="#ABB3BF" fill-opacity="0.45"/>
</g>
<path d="M8.82602 65.8109C8.82597 65.8109 8.82635 65.8102 8.8273 65.809C8.82654 65.8102 8.82607 65.8109 8.82602 65.8109ZM8.84294 65.7917C8.84764 65.787 8.8535 65.7815 8.86073 65.7751C8.92658 65.7172 9.05454 65.6374 9.27173 65.5465C9.70235 65.366 10.365 65.1895 11.2506 65.0236C13.0132 64.6935 15.5498 64.4249 18.6163 64.2168C24.7434 63.8008 32.922 63.6298 41.1076 63.6727C49.2928 63.7155 57.4731 63.9722 63.6025 64.4097C66.6697 64.6287 69.2103 64.892 70.9778 65.194C71.8655 65.3456 72.5346 65.5032 72.9722 65.6612C73.1764 65.7349 73.3044 65.7997 73.3758 65.8482C73.3615 66.2526 73.2761 67.0968 73.1231 68.3106C72.9566 69.6316 72.7146 71.3576 72.4131 73.356C71.8102 77.3525 70.9705 82.4314 70.0241 87.5259C69.0773 92.622 68.025 97.7265 66.9972 101.777C66.4831 103.804 65.9774 105.557 65.4967 106.911C65.2563 107.588 65.0248 108.157 64.805 108.606C64.5815 109.063 64.3847 109.366 64.2237 109.535C64.0845 109.681 63.8057 109.857 63.3421 110.041C62.8891 110.221 62.3036 110.391 61.5962 110.55C60.1823 110.867 58.3278 111.127 56.171 111.331C51.8602 111.738 46.3912 111.914 40.9298 111.882C35.4688 111.85 30.0289 111.61 25.777 111.187C23.6496 110.975 21.8309 110.719 20.4599 110.423C19.7737 110.274 19.2114 110.119 18.7835 109.959C18.34 109.792 18.099 109.642 17.9969 109.535C17.8712 109.403 17.702 109.137 17.4997 108.706C17.3023 108.285 17.0901 107.743 16.8659 107.091C16.4178 105.788 15.9326 104.079 15.4297 102.091C14.4244 98.1159 13.3567 93.0584 12.3793 87.9728C11.4022 82.8885 10.5167 77.783 9.87571 73.7145C9.55518 71.6801 9.2961 69.9072 9.11731 68.5271C8.94375 67.1874 8.84986 66.2465 8.84294 65.7917ZM73.4248 65.8873C73.4247 65.8873 73.4231 65.8858 73.4206 65.8827C73.4238 65.8857 73.425 65.8873 73.4248 65.8873Z" fill="#A6C1DF" stroke="#709BCA"/>
<circle cx="25.3568" cy="84.0288" r="4.41104" fill="black"/>
<circle cx="27.2469" cy="83.3987" r="1.2603" fill="white"/>
<circle cx="56.8644" cy="84.0288" r="4.41104" fill="black"/>
<circle cx="58.7544" cy="83.3987" r="1.2603" fill="white"/>
<path d="M48.1722 89.3679C48.1722 89.7706 48.0029 90.339 47.6409 90.9906C47.2842 91.6325 46.762 92.3158 46.111 92.941C44.803 94.1974 43.0302 95.1693 41.1104 95.1693C39.1906 95.1693 37.4178 94.1974 36.1097 92.941C35.4587 92.3158 34.9366 91.6325 34.5799 90.9906C34.2178 90.339 34.0486 89.7706 34.0486 89.3679C34.0486 89.1698 34.0892 89.0872 34.1107 89.0567C34.127 89.0336 34.1606 88.9985 34.2667 88.9714C34.5249 88.9053 34.9699 88.9425 35.6697 89.076C35.9402 89.1276 36.2381 89.1913 36.5593 89.26C37.8047 89.5264 39.4006 89.8678 41.1104 89.8678C42.8202 89.8678 44.4161 89.5264 45.6614 89.26C45.9826 89.1913 46.2805 89.1276 46.551 89.076C47.2508 88.9425 47.6958 88.9053 47.954 88.9714C48.0601 88.9985 48.0937 89.0336 48.11 89.0567C48.1316 89.0872 48.1722 89.1698 48.1722 89.3679Z" fill="#CC988E" stroke="black"/>
<path d="M57.3424 54.9905C55.5195 57.4088 53.055 60.0647 50.735 61.5759C49.7079 62.191 48.6496 62.8882 47.6208 63.5659C47.5133 63.6367 47.4062 63.7072 47.2995 63.7775C46.1623 64.5258 45.0708 65.2361 44.0812 65.791C43.0815 66.3515 42.2351 66.7244 41.5825 66.836C41.2611 66.891 41.0217 66.8761 40.847 66.8173C40.7069 66.77 40.5871 66.6879 40.4857 66.547C40.4915 66.5345 40.4991 66.5192 40.509 66.501C40.5816 66.3686 40.7305 66.1796 40.9745 65.9353C41.4563 65.4528 42.2115 64.8499 43.1462 64.1774C45.0092 62.8371 47.5087 61.2745 49.7568 59.929C52.0715 58.5436 54.7177 55.9333 56.8133 53.8412C56.9041 53.7505 56.9939 53.6608 57.0826 53.5723C58.0298 52.626 58.8497 51.8069 59.4785 51.2558C59.6213 51.1306 59.749 51.024 59.8618 50.9354C59.7695 51.1679 59.6359 51.4497 59.4613 51.7746C58.9895 52.6526 58.2522 53.7836 57.3424 54.9905ZM40.4688 66.5942C40.4685 66.5943 40.4688 66.5919 40.4703 66.5866C40.4698 66.5914 40.469 66.5941 40.4688 66.5942ZM60.0108 50.3869C60.0109 50.3869 60.011 50.3881 60.0112 50.3906C60.0108 50.3882 60.0107 50.387 60.0108 50.3869Z" fill="#79A690" stroke="#568A71"/>
<path d="M42.5027 61C42.5027 63.6272 42.5024 67.608 42.2541 70.9302C42.1296 72.5954 41.9445 74.0673 41.6748 75.1129C41.5389 75.6396 41.3903 76.0218 41.2396 76.2615C41.1654 76.3794 41.103 76.4427 41.0603 76.4738C41.0243 76.5001 41.0081 76.5 41.003 76.5H41.0027C41.0024 76.5 41.0022 76.5 41.0019 76.5C40.9985 76.5002 40.991 76.5006 40.9695 76.4838C40.9387 76.4598 40.8871 76.4044 40.8256 76.2904C40.7001 76.0577 40.5862 75.6805 40.4954 75.1531C40.3156 74.1077 40.2527 72.6358 40.2527 70.9675C40.2527 69.3057 40.3148 67.4784 40.3774 65.7313C40.3812 65.6243 40.385 65.5176 40.3889 65.4113C40.4472 63.7861 40.5027 62.2416 40.5027 61C40.5027 58.4112 40.848 54.9401 41.3313 52.1169C41.5731 50.7042 41.8466 49.4717 42.1227 48.6008C42.2324 48.2545 42.3379 47.9808 42.4351 47.7809C42.4782 47.9651 42.5171 48.2058 42.5497 48.504C42.6451 49.3762 42.6734 50.6099 42.6669 52.0302C42.6606 53.4045 42.6219 54.9338 42.5835 56.4491L42.58 56.5864C42.5406 58.1434 42.5027 59.6808 42.5027 61Z" fill="#79A690" stroke="#568A71"/>
<path d="M34.2614 65.397C36.0457 67.292 38.9374 70.0384 41.4819 72.2151C42.7553 73.3044 43.93 74.241 44.8292 74.8554C45.2821 75.1648 45.6447 75.3783 45.9045 75.4916C45.9522 75.5124 45.9928 75.5282 46.0267 75.54C46.0316 75.4906 46.0276 75.4204 46.0046 75.3198C45.9456 75.0612 45.7788 74.7069 45.4882 74.2596C44.912 73.3726 43.9468 72.2648 42.7935 71.0594C41.6452 69.8592 40.3333 68.5856 39.0774 67.3675L39.0249 67.3165C37.7924 66.1211 36.6134 64.9776 35.7174 64.026C34.6872 62.9319 33.467 61.5452 32.2433 60.1544C31.3347 59.1218 30.4242 58.087 29.588 57.1681C28.5948 56.0766 27.7034 55.1445 27.0165 54.5347C26.7864 54.3305 26.5899 54.1721 26.428 54.0581C26.4997 54.2814 26.6165 54.5651 26.7794 54.9047C27.1941 55.7688 27.8646 56.9069 28.6809 58.1538C30.3132 60.6469 32.4887 63.5144 34.2614 65.397ZM46.1575 75.573C46.1574 75.5729 46.1561 75.5728 46.1537 75.5728C46.1563 75.573 46.1575 75.573 46.1575 75.573ZM26.3461 53.6522C26.3461 53.6522 26.3459 53.653 26.3458 53.6548C26.3461 53.6531 26.3461 53.6522 26.3461 53.6522Z" fill="#79A690" stroke="#568A71"/>
<path d="M77.7326 24.7338C77.7669 24.7149 77.8002 24.6967 77.8323 24.6792C77.8383 24.7381 77.8445 24.8005 77.8508 24.8662C77.9073 25.4553 77.9731 26.3098 78.0094 27.3656C78.0819 29.4784 78.0358 32.391 77.5628 35.5918C76.6148 42.0065 73.9662 49.494 67.2187 54.0867C63.8093 56.4072 61.1753 57.1045 59.2326 56.8426C57.32 56.5848 55.9716 55.3816 55.1409 53.6282C54.3039 51.8615 54.01 49.5597 54.2403 47.2243C54.4704 44.8914 55.2192 42.5725 56.416 40.7774C57.6254 38.9632 59.5962 37.0244 61.9025 35.1266C64.2029 33.2336 66.8105 31.4028 69.2694 29.801C71.7272 28.2 74.0303 26.8318 75.7192 25.8637C76.5635 25.3798 77.2538 24.9962 77.7326 24.7338Z" fill="#79A690" stroke="#568A71"/>
<path d="M11.0926 28.8777C11.0583 28.8589 11.025 28.8407 10.9929 28.8231C10.9869 28.8821 10.9807 28.9444 10.9744 29.0101C10.9179 29.5992 10.8521 30.4537 10.8158 31.5095C10.7433 33.6223 10.7894 36.5349 11.2624 39.7357C12.2104 46.1504 14.859 53.638 21.6065 58.2306C25.0159 60.5511 27.6499 61.2484 29.5926 60.9866C31.5052 60.7288 32.8536 59.5255 33.6843 57.7721C34.5213 56.0054 34.8152 53.7036 34.5849 51.3682C34.3548 49.0354 33.606 46.7165 32.4092 44.9213C31.1998 43.1071 29.229 41.1683 26.9227 39.2705C24.6223 37.3775 22.0147 35.5467 19.5558 33.945C17.098 32.3439 14.7949 30.9757 13.106 30.0076C12.2617 29.5237 11.5714 29.1401 11.0926 28.8777Z" fill="#79A690" stroke="#568A71"/>
<path d="M49.4726 1.57721C49.4316 1.49877 49.3931 1.42597 49.3574 1.35891C49.2511 1.46318 49.1279 1.58531 48.9893 1.72477C48.4575 2.25989 47.6992 3.04999 46.7981 4.06584C44.9952 6.09819 42.6235 9.03063 40.3483 12.6295C35.7913 19.8376 31.6592 29.6591 33.1785 40.2549C33.9418 45.5777 35.6107 49.0184 37.6575 50.9516C39.6831 52.8648 42.1221 53.3447 44.5837 52.6675C49.5673 51.2965 54.709 45.132 56.1904 36.2437C57.6719 27.3544 55.8954 18.4968 53.7328 11.8405C52.6528 8.51617 51.4796 5.75042 50.577 3.81694C50.1258 2.8504 49.7425 2.09241 49.4726 1.57721Z" fill="#79A690" stroke="#568A71"/>
<path d="M19.1651 67.6557C32.1731 70.084 47.349 71.4779 63.9703 67.6557C80.5915 63.8335 63.9703 78.3576 63.9703 78.3576H19.1651C19.1651 78.3576 6.15714 65.2275 19.1651 67.6557Z" fill="#A6C1DF"/>
<path d="M9.23291 66.2286C10.2966 71.0155 74.6528 71.0155 73.0572 66.2286" stroke="#709BCA"/>
<defs>
<filter id="filter0_f_158_842" x="4.82202" y="105.084" width="70.056" height="15.8633" filterUnits="userSpaceOnUse" color-interpolation-filters="sRGB">
<feFlood flood-opacity="0" result="BackgroundImageFix"/>
<feBlend mode="normal" in="SourceGraphic" in2="BackgroundImageFix" result="shape"/>
<feGaussianBlur stdDeviation="0.5" result="effect1_foregroundBlur_158_842"/>
</filter>
</defs>
</svg>
