<svg width="113" height="106" viewBox="0 0 113 106" fill="none" xmlns="http://www.w3.org/2000/svg">
<g filter="url(#filter0_f_73_751)">
<ellipse cx="55.8501" cy="98.0157" rx="34.028" ry="6.93164" fill="#ABB3BF" fill-opacity="0.45"/>
</g>
<path d="M24.826 50.8109C24.826 50.8109 24.8264 50.8102 24.8273 50.809C24.8265 50.8102 24.8261 50.8109 24.826 50.8109ZM24.8429 50.7917C24.8476 50.787 24.8535 50.7815 24.8607 50.7751C24.9266 50.7172 25.0545 50.6374 25.2717 50.5465C25.7023 50.366 26.365 50.1895 27.2506 50.0236C29.0132 49.6935 31.5498 49.4249 34.6163 49.2168C40.7434 48.8008 48.922 48.6298 57.1076 48.6727C65.2928 48.7155 73.4731 48.9722 79.6025 49.4097C82.6697 49.6287 85.2103 49.892 86.9778 50.194C87.8655 50.3456 88.5346 50.5032 88.9722 50.6612C89.1764 50.7349 89.3044 50.7997 89.3758 50.8482C89.3615 51.2526 89.2761 52.0968 89.1231 53.3106C88.9566 54.6316 88.7146 56.3576 88.4131 58.356C87.8102 62.3525 86.9705 67.4314 86.0241 72.5259C85.0773 77.622 84.025 82.7265 82.9972 86.7773C82.4831 88.8035 81.9774 90.5571 81.4967 91.9106C81.2563 92.5875 81.0248 93.1566 80.805 93.6062C80.5815 94.0634 80.3847 94.3659 80.2237 94.5349C80.0845 94.6809 79.8057 94.857 79.3421 95.0409C78.8891 95.2206 78.3036 95.3911 77.5962 95.5497C76.1823 95.867 74.3278 96.1272 72.171 96.3308C67.8602 96.7377 62.3912 96.9139 56.9298 96.8819C51.4688 96.8499 46.0289 96.6097 41.777 96.1867C39.6496 95.975 37.8309 95.7186 36.4599 95.4226C35.7737 95.2744 35.2114 95.1188 34.7835 94.9585C34.34 94.7924 34.099 94.642 33.9969 94.5349C33.8712 94.403 33.702 94.1375 33.4997 93.7057C33.3023 93.2847 33.0901 92.7426 32.8659 92.0908C32.4178 90.788 31.9326 89.0791 31.4297 87.0907C30.4244 83.1159 29.3567 78.0584 28.3793 72.9728C27.4022 67.8885 26.5167 62.783 25.8757 58.7145C25.5552 56.6801 25.2961 54.9072 25.1173 53.5271C24.9437 52.1874 24.8499 51.2465 24.8429 50.7917ZM89.4248 50.8873C89.4247 50.8873 89.4231 50.8858 89.4206 50.8827C89.4238 50.8857 89.425 50.8873 89.4248 50.8873Z" fill="#A6C1DF" stroke="#709BCA"/>
<circle cx="41.3568" cy="69.0288" r="4.41104" fill="black"/>
<circle cx="43.2469" cy="68.3987" r="1.2603" fill="white"/>
<circle cx="72.8644" cy="69.0288" r="4.41104" fill="black"/>
<circle cx="74.7544" cy="68.3987" r="1.2603" fill="white"/>
<path d="M50.0485 79.7413C50.0485 79.3385 50.2178 78.7702 50.5798 78.1186C50.9365 77.4767 51.4587 76.7934 52.1097 76.1681C53.4178 74.9117 55.1905 73.9398 57.1103 73.9398C59.0301 73.9398 60.8029 74.9117 62.111 76.1681C62.762 76.7934 63.2841 77.4767 63.6408 78.1186C64.0029 78.7702 64.1721 79.3385 64.1721 79.7413C64.1721 80.4652 63.5876 81.157 62.2698 81.6902C60.9816 82.2114 59.161 82.5 57.1103 82.5C55.0597 82.5 53.2391 82.2114 51.9509 81.6902C50.6331 81.157 50.0485 80.4652 50.0485 79.7413Z" fill="#CC988E" stroke="black"/>
<path d="M110.783 35.8665C110.805 35.8557 110.826 35.845 110.848 35.8344C110.031 35.6334 108.847 35.3641 107.367 35.0883C104.382 34.5322 100.198 33.9508 95.4072 33.8496C85.8144 33.6469 73.8478 35.3698 64.1653 43.0021C59.269 46.8617 56.7303 49.7591 55.7842 51.8367C55.3156 52.8658 55.2624 53.6391 55.4427 54.2134C55.6207 54.7809 56.0563 55.248 56.767 55.6078C58.2197 56.3432 60.6469 56.5363 63.4748 56.2347C66.2787 55.9357 69.3862 55.1604 72.1378 54.0492C77.7074 51.8 87.6766 47.1021 96.2672 42.9592C100.559 40.8893 104.503 38.9602 107.373 37.5486C108.808 36.8428 109.975 36.2664 110.783 35.8665Z" fill="#79A690" stroke="#568A71"/>
<path d="M6.57503 38.6805C5.43627 38.2506 4.47797 37.891 3.74931 37.6184C4.4709 37.47 5.41595 37.2908 6.54992 37.1085C9.34024 36.6599 13.2711 36.1932 17.829 36.1215C26.9536 35.978 38.542 37.4183 48.5292 43.7049C53.5717 46.8791 56.2006 49.3632 57.2024 51.1805C57.697 52.0777 57.7615 52.7498 57.6051 53.2454C57.4487 53.7409 57.0346 54.177 56.3195 54.5224C54.8683 55.2233 52.4128 55.4305 49.5474 55.0936C46.7033 54.7593 43.5382 53.8987 40.7157 52.5488C34.9464 49.7896 25.3046 45.9082 17.1189 42.7214C13.0231 41.1269 9.2871 39.7044 6.57503 38.6805Z" fill="#79A690" stroke="#568A71"/>
<path d="M6.67523 22.835C5.21082 22.4712 3.95182 22.1874 2.96497 21.9773C4.33914 21.7027 6.26061 21.3519 8.57854 21.0157C13.4351 20.3113 20.0223 19.6727 26.9578 19.9305C40.8767 20.448 55.9558 24.5595 61.535 38.6837C64.3701 45.8611 65.2335 51.194 64.865 54.8479C64.4972 58.4946 62.9265 60.3691 60.9563 60.8987C58.9358 61.4418 56.2673 60.6416 53.5861 58.4147C50.9207 56.2008 48.3163 52.6296 46.4667 47.8205C44.5445 42.823 40.6819 38.6901 36.0203 35.3063C31.3563 31.9207 25.8606 29.2617 20.6189 27.2215C15.3747 25.1803 10.3689 23.7525 6.67523 22.835Z" fill="#79A690" stroke="#568A71"/>
<path d="M35.1651 52.6557C48.1731 55.084 63.349 56.4779 79.9703 52.6557C96.5915 48.8335 79.9703 63.3576 79.9703 63.3576H35.1651C35.1651 63.3576 22.1571 50.2275 35.1651 52.6557Z" fill="#A6C1DF"/>
<path d="M25.2329 51.2286C26.2966 56.0155 90.6528 56.0155 89.0572 51.2286" stroke="#709BCA"/>
<defs>
<filter id="filter0_f_73_751" x="20.822" y="90.0841" width="70.056" height="15.8633" filterUnits="userSpaceOnUse" color-interpolation-filters="sRGB">
<feFlood flood-opacity="0" result="BackgroundImageFix"/>
<feBlend mode="normal" in="SourceGraphic" in2="BackgroundImageFix" result="shape"/>
<feGaussianBlur stdDeviation="0.5" result="effect1_foregroundBlur_73_751"/>
</filter>
</defs>
</svg>
