<svg width="89" height="117" viewBox="0 0 89 117" fill="none" xmlns="http://www.w3.org/2000/svg">
<g filter="url(#filter0_f_73_861)">
<ellipse cx="42.8501" cy="109.016" rx="34.028" ry="6.93164" fill="#ABB3BF" fill-opacity="0.45"/>
</g>
<path d="M11.826 61.8109C11.826 61.8109 11.8264 61.8102 11.8273 61.809C11.8265 61.8102 11.8261 61.8109 11.826 61.8109ZM11.8429 61.7917C11.8476 61.787 11.8535 61.7815 11.8607 61.7751C11.9266 61.7172 12.0545 61.6374 12.2717 61.5465C12.7023 61.366 13.365 61.1895 14.2506 61.0236C16.0132 60.6935 18.5498 60.4249 21.6163 60.2168C27.7434 59.8008 35.922 59.6298 44.1076 59.6727C52.2928 59.7155 60.4731 59.9722 66.6025 60.4097C69.6697 60.6287 72.2103 60.892 73.9778 61.194C74.8655 61.3456 75.5346 61.5032 75.9722 61.6612C76.1764 61.7349 76.3044 61.7997 76.3758 61.8482C76.3615 62.2526 76.2761 63.0968 76.1231 64.3106C75.9566 65.6316 75.7146 67.3576 75.4131 69.356C74.8102 73.3525 73.9705 78.4314 73.0241 83.5259C72.0773 88.622 71.025 93.7265 69.9972 97.7773C69.4831 99.8035 68.9774 101.557 68.4967 102.911C68.2563 103.588 68.0248 104.157 67.805 104.606C67.5815 105.063 67.3847 105.366 67.2237 105.535C67.0845 105.681 66.8057 105.857 66.3421 106.041C65.8891 106.221 65.3036 106.391 64.5962 106.55C63.1823 106.867 61.3278 107.127 59.171 107.331C54.8602 107.738 49.3912 107.914 43.9298 107.882C38.4688 107.85 33.0289 107.61 28.777 107.187C26.6496 106.975 24.8309 106.719 23.4599 106.423C22.7737 106.274 22.2114 106.119 21.7835 105.959C21.34 105.792 21.099 105.642 20.9969 105.535C20.8712 105.403 20.702 105.137 20.4997 104.706C20.3023 104.285 20.0901 103.743 19.8659 103.091C19.4178 101.788 18.9326 100.079 18.4297 98.0907C17.4244 94.1159 16.3567 89.0584 15.3793 83.9728C14.4022 78.8885 13.5167 73.783 12.8757 69.7145C12.5552 67.6801 12.2961 65.9072 12.1173 64.5271C11.9437 63.1874 11.8499 62.2465 11.8429 61.7917ZM76.4248 61.8873C76.4247 61.8873 76.4231 61.8858 76.4206 61.8827C76.4238 61.8857 76.425 61.8873 76.4248 61.8873Z" fill="#A6C1DF" stroke="#709BCA"/>
<circle cx="28.3568" cy="80.0288" r="4.41104" fill="black"/>
<circle cx="30.2469" cy="79.3988" r="1.2603" fill="white"/>
<circle cx="59.8644" cy="80.0288" r="4.41104" fill="black"/>
<circle cx="61.7544" cy="79.3988" r="1.2603" fill="white"/>
<path d="M51.1722 85.368C51.1722 85.7707 51.0029 86.339 50.6409 86.9906C50.2842 87.6325 49.762 88.3158 49.111 88.9411C47.803 90.1975 46.0302 91.1694 44.1104 91.1694C42.1906 91.1694 40.4178 90.1975 39.1097 88.9411C38.4587 88.3158 37.9366 87.6325 37.5799 86.9906C37.2178 86.339 37.0486 85.7707 37.0486 85.368C37.0486 85.1699 37.0892 85.0873 37.1107 85.0567C37.127 85.0337 37.1606 84.9986 37.2667 84.9714C37.5249 84.9054 37.9699 84.9425 38.6697 85.076C38.9402 85.1276 39.2381 85.1913 39.5593 85.2601C40.8047 85.5265 42.4006 85.8679 44.1104 85.8679C45.8202 85.8679 47.4161 85.5265 48.6614 85.2601C48.9826 85.1913 49.2805 85.1276 49.551 85.076C50.2508 84.9425 50.6958 84.9054 50.954 84.9714C51.0601 84.9986 51.0937 85.0337 51.11 85.0567C51.1316 85.0873 51.1722 85.1699 51.1722 85.368Z" fill="#CC988E" stroke="black"/>
<path d="M73.7445 18.306C73.8435 18.2026 73.9359 18.1063 74.0214 18.0174C74.0823 18.6895 74.153 19.6693 74.1928 20.9058C74.2732 23.4018 74.2281 26.9418 73.7247 31.1084C72.7176 39.4441 69.8794 50.2674 62.5642 60.2616C58.8746 65.3025 56.2119 67.834 54.3376 68.7153C53.4189 69.1473 52.7548 69.1528 52.261 68.9429C51.7549 68.7278 51.3126 68.2386 50.9477 67.4417C50.2117 65.8347 49.9161 63.2547 49.8761 60.3466C49.8365 57.4601 50.0481 54.33 50.2779 51.6715C50.4969 49.1377 52.0906 45.7245 54.4393 41.9745C56.7749 38.2455 59.8092 34.2565 62.8232 30.5897C65.8357 26.9247 68.8207 23.5904 71.053 21.1718C72.169 19.9627 73.0964 18.9831 73.7445 18.306Z" fill="#79A690" stroke="#568A71"/>
<path d="M16.3864 15.8344C16.2821 15.7113 16.1854 15.5973 16.0964 15.4929C16.0956 15.4982 16.0948 15.5035 16.094 15.5088C15.9887 16.1982 15.8531 17.2102 15.7335 18.4935C15.4942 21.0606 15.319 24.7111 15.5766 29.036C16.0919 37.6884 18.3383 49.0192 25.2502 59.7764C28.7355 65.2007 31.3218 67.9787 33.2015 69.0062C34.1234 69.5102 34.8121 69.5591 35.3396 69.3718C35.8798 69.1801 36.3686 68.6999 36.7954 67.9C37.656 66.2874 38.1223 63.645 38.3457 60.6514C38.5674 57.6794 38.5454 54.4409 38.4753 51.6876C38.4083 49.0593 36.9785 45.4403 34.7937 41.4297C32.6207 37.441 29.7443 33.1408 26.8688 29.1742C23.9946 25.2094 21.1282 21.5872 18.9799 18.9556C17.9059 17.64 17.0118 16.5726 16.3864 15.8344Z" fill="#79A690" stroke="#568A71"/>
<path d="M46.967 2.15701C46.8814 1.87424 46.8045 1.62225 46.7372 1.40309C46.6986 1.46645 46.6581 1.53304 46.616 1.60283C46.1756 2.33307 45.5504 3.41386 44.8159 4.81009C43.3467 7.60287 41.4406 11.6558 39.6986 16.6884C36.2137 26.7558 33.3911 40.7257 36.0157 56.3659C37.3368 64.2382 38.9049 68.6976 40.5278 70.822C41.328 71.8695 42.0939 72.2878 42.8003 72.3399C43.5182 72.3928 44.3052 72.0778 45.1623 71.3756C46.8881 69.9617 48.6503 67.1824 50.3003 63.9011C51.9402 60.64 53.434 56.957 54.6459 53.8029C55.8138 50.7632 55.921 45.928 55.3784 40.3003C54.8382 34.6972 53.6639 28.3943 52.3353 22.4733C51.0071 16.5543 49.5272 11.0278 48.3791 6.98042C47.8051 4.95698 47.3142 3.30387 46.967 2.15701Z" fill="#79A690" stroke="#568A71"/>
<path d="M22.1651 63.6557C35.1731 66.084 50.349 67.4779 66.9703 63.6557C83.5915 59.8335 66.9703 74.3576 66.9703 74.3576H22.1651C22.1651 74.3576 9.15714 61.2275 22.1651 63.6557Z" fill="#A6C1DF"/>
<path d="M12.2329 62.2286C13.2966 67.0155 77.6528 67.0155 76.0572 62.2286" stroke="#709BCA"/>
<defs>
<filter id="filter0_f_73_861" x="7.82202" y="101.084" width="70.056" height="15.8633" filterUnits="userSpaceOnUse" color-interpolation-filters="sRGB">
<feFlood flood-opacity="0" result="BackgroundImageFix"/>
<feBlend mode="normal" in="SourceGraphic" in2="BackgroundImageFix" result="shape"/>
<feGaussianBlur stdDeviation="0.5" result="effect1_foregroundBlur_73_861"/>
</filter>
</defs>
</svg>
