<svg width="71" height="96" viewBox="0 0 71 96" fill="none" xmlns="http://www.w3.org/2000/svg">
<g filter="url(#filter0_f_141_3833)">
<ellipse cx="35.8501" cy="88.0157" rx="34.028" ry="6.93164" fill="#ABB3BF" fill-opacity="0.45"/>
</g>
<path d="M4.82602 40.8109C4.82597 40.8109 4.82635 40.8102 4.8273 40.809C4.82654 40.8102 4.82607 40.8109 4.82602 40.8109ZM4.84294 40.7917C4.84764 40.787 4.8535 40.7815 4.86073 40.7751C4.92658 40.7172 5.05454 40.6374 5.27173 40.5465C5.70235 40.366 6.36496 40.1895 7.25055 40.0236C9.01318 39.6935 11.5498 39.4249 14.6163 39.2168C20.7434 38.8008 28.922 38.6298 37.1076 38.6727C45.2928 38.7155 53.4731 38.9722 59.6025 39.4097C62.6697 39.6287 65.2103 39.892 66.9778 40.194C67.8655 40.3456 68.5346 40.5032 68.9722 40.6612C69.1764 40.7349 69.3044 40.7997 69.3758 40.8482C69.3615 41.2526 69.2761 42.0968 69.1231 43.3106C68.9566 44.6316 68.7146 46.3576 68.4131 48.356C67.8102 52.3525 66.9705 57.4314 66.0241 62.5259C65.0773 67.622 64.025 72.7265 62.9972 76.7773C62.4831 78.8035 61.9774 80.5571 61.4967 81.9106C61.2563 82.5875 61.0248 83.1566 60.805 83.6062C60.5815 84.0634 60.3847 84.3659 60.2237 84.5349C60.0845 84.6809 59.8057 84.857 59.3421 85.0409C58.8891 85.2206 58.3036 85.3911 57.5962 85.5497C56.1823 85.867 54.3278 86.1272 52.171 86.3308C47.8602 86.7377 42.3912 86.9139 36.9298 86.8819C31.4688 86.8499 26.0289 86.6097 21.777 86.1867C19.6496 85.975 17.8309 85.7186 16.4599 85.4226C15.7737 85.2744 15.2114 85.1188 14.7835 84.9585C14.34 84.7924 14.099 84.642 13.9969 84.5349C13.8712 84.403 13.702 84.1375 13.4997 83.7057C13.3023 83.2847 13.0901 82.7426 12.8659 82.0908C12.4178 80.788 11.9326 79.0791 11.4297 77.0907C10.4244 73.1159 9.35666 68.0584 8.37931 62.9728C7.4022 57.8885 6.51673 52.783 5.87571 48.7145C5.55518 46.6801 5.2961 44.9072 5.11731 43.5271C4.94375 42.1874 4.84986 41.2465 4.84294 40.7917ZM69.4248 40.8873C69.4247 40.8873 69.4231 40.8858 69.4206 40.8827C69.4238 40.8857 69.425 40.8873 69.4248 40.8873Z" fill="#A6C1DF" stroke="#709BCA"/>
<circle cx="21.3568" cy="59.0288" r="4.41104" fill="black"/>
<circle cx="23.2469" cy="58.3987" r="1.2603" fill="white"/>
<circle cx="52.8644" cy="59.0288" r="4.41104" fill="black"/>
<circle cx="54.7544" cy="58.3987" r="1.2603" fill="white"/>
<path d="M60.5 33.4944C60.5 36.7482 60.4672 39.4161 60.0555 41.6116C59.647 43.7899 58.8731 45.4568 57.4197 46.738C55.954 48.03 53.7433 48.978 50.3641 49.5976C46.9872 50.2169 42.4919 50.5 36.5028 50.5C30.3876 50.5 25.8938 50.2168 22.5887 49.598C19.2809 48.9787 17.222 48.0333 15.9177 46.7558C14.6234 45.4881 14.0097 43.8313 13.7281 41.64C13.4884 39.7742 13.495 37.5791 13.5028 34.9721C13.5042 34.4936 13.5057 34.0012 13.5057 33.4944C13.5057 20.8049 24.0157 10.5 37.0028 10.5C49.99 10.5 60.5 20.8049 60.5 33.4944Z" fill="#79A690" stroke="#568A71"/>
<path d="M12.5 42.6557C19 45.3115 49.5 45.5001 61.5 43.5001C73.5 41.5001 59.9703 53.3576 59.9703 53.3576H15.1652C15.1652 53.3576 6 40 12.5 42.6557Z" fill="#A6C1DF"/>
<path d="M37 11C25.0197 19.9474 24.4988 36.5 27.6242 45M37 11C25.0197 19.9474 24.4988 36.5 27.6242 45" stroke="#568A71"/>
<path d="M37 11C48.9803 19.9474 49.5012 36.5 46.3758 45M37 11C48.9803 19.9474 49.5012 36.5 46.3758 45" stroke="#568A71"/>
<path d="M5.23291 41.2286C6.29665 46.0155 70.6528 46.0155 69.0572 41.2286" stroke="#709BCA"/>
<path d="M39.2474 6.08911C39.2474 7.75209 39.1119 8.86004 38.7395 9.5496C38.5634 9.87561 38.3369 10.1016 38.0387 10.2526C37.7324 10.4078 37.3183 10.5 36.7474 10.5C36.1765 10.5 35.7625 10.4078 35.4562 10.2526C35.158 10.1016 34.9315 9.87561 34.7554 9.5496C34.383 8.86004 34.2474 7.75209 34.2474 6.08911C34.2474 4.52961 34.7193 3.1148 35.3058 2.09591C35.5992 1.58611 35.9133 1.18958 36.1964 0.927615C36.5014 0.645396 36.6935 0.589111 36.7474 0.589111C36.8014 0.589111 36.9935 0.645396 37.2985 0.927615C37.5816 1.18958 37.8956 1.58611 38.1891 2.09591C38.7756 3.1148 39.2474 4.52961 39.2474 6.08911Z" fill="#EB93A3" stroke="#CC697A"/>
<path d="M41.4712 7.14572C41.078 8.73453 40.5926 9.83229 39.9765 10.464C39.6771 10.7709 39.3494 10.9651 38.9804 11.0577C38.608 11.1512 38.1627 11.1489 37.6201 11.0146C37.0752 10.8798 36.7323 10.686 36.5132 10.4631C36.299 10.2452 36.1654 9.96117 36.1075 9.57101C35.9849 8.74486 36.2137 7.57647 36.6177 5.94437C36.9924 4.43056 37.7904 3.17056 38.6045 2.32243C39.0118 1.89807 39.412 1.58862 39.7497 1.40235C40.1136 1.20168 40.3136 1.1932 40.366 1.20616C40.4183 1.21912 40.5913 1.31991 40.8195 1.66715C41.0314 1.98946 41.241 2.44983 41.4034 3.0152C41.7279 4.14516 41.8459 5.6319 41.4712 7.14572Z" fill="#EB93A3" stroke="#CC697A"/>
<path d="M31.9269 7.24411C32.3272 8.86097 32.7175 9.9302 33.2422 10.5344C33.4905 10.8204 33.762 10.9927 34.082 11.0731C34.4102 11.1556 34.8285 11.1511 35.3799 11.0146C35.9307 10.8783 36.3119 10.6851 36.5756 10.4534C36.8335 10.2266 37.0051 9.94027 37.1024 9.56739C37.3066 8.78468 37.1788 7.65184 36.7805 6.04276C36.4058 4.52895 35.6078 3.26894 34.7937 2.42082C34.3864 1.99646 33.9862 1.68701 33.6485 1.50074C33.2846 1.30007 33.0846 1.29159 33.0322 1.30455C32.9799 1.31751 32.8069 1.4183 32.5787 1.76553C32.3668 2.08785 32.1572 2.54822 31.9948 3.11359C31.6703 4.24355 31.5522 5.73029 31.9269 7.24411Z" fill="#EB93A3" stroke="#CC697A"/>
<line x1="45.6464" y1="18.6464" x2="46.6464" y2="17.6464" stroke="#E0F8EE"/>
<path d="M39.6935 23.1925L39.6935 22" stroke="#E0F8EE"/>
<path d="M38.7213 16.2603L39.4073 15.0064" stroke="#E0F8EE"/>
<line x1="33.5186" y1="17.4206" x2="33.5001" y2="16.0065" stroke="#E0F8EE"/>
<path d="M31.6156 23.984L30.7613 23.1519" stroke="#E0F8EE"/>
<path d="M25.9716 19.8432L25.5521 18.4768" stroke="#E0F8EE"/>
<path d="M51.0945 40.1704L52.1338 39.5854" stroke="#E0F8EE"/>
<path d="M56.659 35.9233L58.0882 35.9062" stroke="#E0F8EE"/>
<line x1="53.3638" y1="30.6539" x2="54.5871" y2="29.9443" stroke="#E0F8EE"/>
<path d="M55.1616 23.8888L56.2809 22.9999" stroke="#E0F8EE"/>
<path d="M43.4431 29.1525L43.7493 28" stroke="#E0F8EE"/>
<path d="M49.1278 26.0357L50.1128 25" stroke="#E0F8EE"/>
<path d="M21.069 22.177L20 22.7054" stroke="#E0F8EE"/>
<path d="M16.6624 27.2131L15.2343 27.1537" stroke="#E0F8EE"/>
<line x1="19.2301" y1="33.2868" x2="17.9589" y2="32.6671" stroke="#E0F8EE"/>
<path d="M17.4224 40.2433L16.4397 39.2054" stroke="#E0F8EE"/>
<path d="M23.6537 37.4896L22.6146 38.4711" stroke="#E0F8EE"/>
<path d="M38.0819 29.8493L38.9999 29" stroke="#E0F8EE"/>
<path d="M29 35.9109L29.918 35.0616" stroke="#E0F8EE"/>
<line x1="33.0026" y1="41.2554" x2="33.9552" y2="42.3007" stroke="#E0F8EE"/>
<path d="M39.9951 41.58L41.1008 42.4857" stroke="#E0F8EE"/>
<path d="M32.3696 31.2417L33.5609 31.297" stroke="#E0F8EE"/>
<path d="M22 29.5526L23.1913 29.6079" stroke="#E0F8EE"/>
<path d="M39.8027 36L39.1706 37.2819" stroke="#E0F8EE"/>
<path d="M44.1722 64.368C44.1722 64.7708 44.0029 65.3391 43.6409 65.9907C43.2842 66.6326 42.762 67.3159 42.111 67.9412C40.803 69.1975 39.0302 70.1694 37.1104 70.1694C35.1906 70.1694 33.4178 69.1975 32.1097 67.9412C31.4587 67.3159 30.9366 66.6326 30.5799 65.9907C30.2178 65.3391 30.0486 64.7708 30.0486 64.368C30.0486 64.1699 30.0892 64.0873 30.1107 64.0568C30.127 64.0337 30.1606 63.9986 30.2667 63.9715C30.5249 63.9054 30.9699 63.9426 31.6697 64.0761C31.9402 64.1277 32.2381 64.1914 32.5593 64.2601C33.8047 64.5265 35.4006 64.868 37.1104 64.868C38.8202 64.868 40.4161 64.5265 41.6614 64.2601C41.9826 64.1914 42.2805 64.1277 42.551 64.0761C43.2508 63.9426 43.6958 63.9054 43.954 63.9715C44.0601 63.9986 44.0937 64.0337 44.11 64.0568C44.1316 64.0873 44.1722 64.1699 44.1722 64.368Z" fill="#CC988E" stroke="black"/>
<defs>
<filter id="filter0_f_141_3833" x="0.822021" y="80.0841" width="70.056" height="15.8633" filterUnits="userSpaceOnUse" color-interpolation-filters="sRGB">
<feFlood flood-opacity="0" result="BackgroundImageFix"/>
<feBlend mode="normal" in="SourceGraphic" in2="BackgroundImageFix" result="shape"/>
<feGaussianBlur stdDeviation="0.5" result="effect1_foregroundBlur_141_3833"/>
</filter>
</defs>
</svg>
