<svg width="71" height="96" viewBox="0 0 71 96" fill="none" xmlns="http://www.w3.org/2000/svg">
<g filter="url(#filter0_f_158_739)">
<ellipse cx="35.028" cy="88.0157" rx="34.028" ry="6.93164" fill="#ABB3BF" fill-opacity="0.45"/>
</g>
<path d="M4.004 40.8109C4.00395 40.8109 4.00433 40.8102 4.00528 40.809C4.00452 40.8102 4.00405 40.8109 4.004 40.8109ZM4.02092 40.7917C4.02562 40.787 4.03148 40.7815 4.03871 40.7751C4.10456 40.7172 4.23252 40.6374 4.44971 40.5465C4.88033 40.366 5.54294 40.1895 6.42853 40.0236C8.19115 39.6935 10.7278 39.4249 13.7943 39.2168C19.9214 38.8008 28.1 38.6298 36.2856 38.6727C44.4708 38.7155 52.651 38.9722 58.7805 39.4097C61.8476 39.6287 64.3883 39.892 66.1558 40.194C67.0435 40.3456 67.7126 40.5032 68.1502 40.6612C68.3544 40.7349 68.4823 40.7997 68.5538 40.8482C68.5395 41.2526 68.454 42.0968 68.301 43.3106C68.1346 44.6316 67.8925 46.3576 67.5911 48.356C66.9882 52.3525 66.1485 57.4314 65.202 62.5259C64.2553 67.622 63.203 72.7265 62.1752 76.7773C61.6611 78.8035 61.1554 80.5571 60.6747 81.9106C60.4343 82.5875 60.2028 83.1566 59.983 83.6062C59.7595 84.0634 59.5627 84.3659 59.4017 84.5349C59.2625 84.6809 58.9837 84.857 58.52 85.0409C58.0671 85.2206 57.4816 85.3911 56.7742 85.5497C55.3603 85.867 53.5058 86.1272 51.349 86.3308C47.0381 86.7377 41.5691 86.9139 36.1078 86.8819C30.6467 86.8499 25.2068 86.6097 20.955 86.1867C18.8276 85.975 17.0089 85.7186 15.6379 85.4226C14.9517 85.2744 14.3894 85.1188 13.9615 84.9585C13.518 84.7924 13.2769 84.642 13.1748 84.5349C13.0492 84.403 12.88 84.1375 12.6777 83.7057C12.4803 83.2847 12.2681 82.7426 12.0439 82.0908C11.5957 80.788 11.1106 79.0791 10.6077 77.0907C9.6024 73.1159 8.53464 68.0584 7.55729 62.9728C6.58018 57.8885 5.69471 52.783 5.05369 48.7145C4.73315 46.6801 4.47408 44.9072 4.29529 43.5271C4.12173 42.1874 4.02784 41.2465 4.02092 40.7917ZM68.6028 40.8873C68.6027 40.8873 68.6011 40.8858 68.5986 40.8827C68.6017 40.8857 68.603 40.8873 68.6028 40.8873Z" fill="#A6C1DF" stroke="#709BCA"/>
<circle cx="20.5348" cy="59.0288" r="4.41104" fill="black"/>
<circle cx="22.4248" cy="58.3987" r="1.2603" fill="white"/>
<circle cx="52.0424" cy="59.0288" r="4.41104" fill="black"/>
<circle cx="53.9324" cy="58.3987" r="1.2603" fill="white"/>
<path d="M29.5 68.3014C29.5 67.8987 29.6692 67.3304 30.0313 66.6788C30.3879 66.0369 30.9101 65.3536 31.5611 64.7283C32.8692 63.4719 34.642 62.5 36.5617 62.5C38.4815 62.5 40.2543 63.4719 41.5624 64.7283C42.2134 65.3536 42.7356 66.0369 43.0922 66.6788C43.4543 67.3304 43.6235 67.8987 43.6235 68.3014C43.6235 69.0254 43.039 69.7172 41.7212 70.2504C40.433 70.7716 38.6124 71.0602 36.5617 71.0602C34.5111 71.0602 32.6905 70.7716 31.4023 70.2504C30.0845 69.7172 29.5 69.0254 29.5 68.3014Z" fill="#CC988E" stroke="black"/>
<path d="M59.5 33.4944C59.5 36.7482 59.4672 39.4161 59.0555 41.6116C58.647 43.7899 57.8731 45.4568 56.4197 46.738C54.954 48.03 52.7433 48.978 49.3641 49.5976C45.9872 50.2169 41.4919 50.5 35.5028 50.5C29.3876 50.5 24.8938 50.2168 21.5887 49.598C18.2809 48.9787 16.222 48.0333 14.9177 46.7558C13.6234 45.4881 13.0097 43.8313 12.7281 41.64C12.4884 39.7742 12.495 37.5791 12.5028 34.9721C12.5042 34.4936 12.5057 34.0012 12.5057 33.4944C12.5057 20.8049 23.0157 10.5 36.0028 10.5C48.99 10.5 59.5 20.8049 59.5 33.4944Z" fill="#79A690" stroke="#568A71"/>
<path d="M11.678 42.6557C18.178 45.3115 48.678 45.5001 60.678 43.5001C72.678 41.5001 59.1483 53.3576 59.1483 53.3576H14.3431C14.3431 53.3576 5.17798 40 11.678 42.6557Z" fill="#A6C1DF"/>
<path d="M36 11C24.0197 19.9474 23.4988 36.5 26.6242 45M36 11C24.0197 19.9474 23.4988 36.5 26.6242 45" stroke="#568A71"/>
<path d="M36 11C47.9802 19.9474 48.5012 36.5 45.3758 45M36 11C47.9802 19.9474 48.5012 36.5 45.3758 45" stroke="#568A71"/>
<path d="M4.41089 41.2286C5.47463 46.0155 69.8307 46.0155 68.2351 41.2286" stroke="#709BCA"/>
<line x1="44.8244" y1="18.6464" x2="45.8244" y2="17.6464" stroke="#E0F8EE"/>
<path d="M38.8715 23.1925L38.8715 22" stroke="#E0F8EE"/>
<path d="M37.8993 16.2603L38.5853 15.0064" stroke="#E0F8EE"/>
<line x1="32.5186" y1="17.4206" x2="32.5001" y2="16.0065" stroke="#E0F8EE"/>
<path d="M30.7935 23.984L29.9393 23.1519" stroke="#E0F8EE"/>
<path d="M25.1496 19.8432L24.7301 18.4768" stroke="#E0F8EE"/>
<path d="M50.2725 40.1704L51.3117 39.5854" stroke="#E0F8EE"/>
<path d="M55.8369 35.9233L57.2661 35.9062" stroke="#E0F8EE"/>
<line x1="52.5418" y1="30.6539" x2="53.7651" y2="29.9443" stroke="#E0F8EE"/>
<path d="M54.3395 23.8888L55.4589 22.9999" stroke="#E0F8EE"/>
<path d="M42.621 29.1525L42.9272 28" stroke="#E0F8EE"/>
<path d="M48.3058 26.0357L49.2908 25" stroke="#E0F8EE"/>
<path d="M20.247 22.177L19.178 22.7054" stroke="#E0F8EE"/>
<path d="M15.8404 27.2131L14.4123 27.1537" stroke="#E0F8EE"/>
<line x1="18.4081" y1="33.2868" x2="17.1369" y2="32.6671" stroke="#E0F8EE"/>
<path d="M16.6004 40.2433L15.6177 39.2054" stroke="#E0F8EE"/>
<path d="M22.8316 37.4896L21.7926 38.4711" stroke="#E0F8EE"/>
<path d="M37.2599 29.8493L38.1779 29" stroke="#E0F8EE"/>
<path d="M28.178 35.9109L29.096 35.0616" stroke="#E0F8EE"/>
<line x1="32.1806" y1="41.2554" x2="33.1332" y2="42.3007" stroke="#E0F8EE"/>
<path d="M39.1731 41.58L40.2787 42.4857" stroke="#E0F8EE"/>
<path d="M31.5476 31.2417L32.7389 31.297" stroke="#E0F8EE"/>
<path d="M21.178 29.5526L22.3692 29.6079" stroke="#E0F8EE"/>
<path d="M38.9807 36L38.3486 37.2819" stroke="#E0F8EE"/>
<path d="M37.8615 5.56148C38.624 7.03938 39.0115 8.08617 38.9966 8.86973C38.9896 9.24018 38.8919 9.54482 38.6962 9.81582C38.4951 10.0942 38.1694 10.3659 37.662 10.6277C37.1547 10.8894 36.7445 10.9973 36.4011 10.9998C36.0668 11.0023 35.7619 10.9053 35.456 10.6963C34.8089 10.2543 34.1804 9.33175 33.418 7.85386C32.703 6.46792 32.4737 4.99423 32.5278 3.81985C32.5548 3.23225 32.6521 2.73586 32.7836 2.37325C32.9253 1.98261 33.0702 1.8445 33.1181 1.81978C33.1661 1.79506 33.3626 1.757 33.763 1.86797C34.1348 1.97098 34.5957 2.17939 35.0902 2.49791C36.0785 3.13451 37.1465 4.17554 37.8615 5.56148Z" fill="#EB93A3" stroke="#CC697A"/>
<path d="M40.3308 9.61869C38.8709 10.3588 37.7227 10.7084 36.8419 10.6546C36.4139 10.6284 36.0529 10.5071 35.7417 10.2882C35.4277 10.0673 35.1385 9.72868 34.8857 9.23017C34.6319 8.72942 34.5546 8.34326 34.5802 8.03174C34.6053 7.72723 34.7331 7.44057 34.9907 7.14185C35.5361 6.50931 36.5702 5.91936 38.0699 5.15908C39.4608 4.45389 40.9361 4.23498 42.1101 4.29736C42.6975 4.32857 43.1931 4.42938 43.5548 4.56344C43.9444 4.70786 44.0815 4.85377 44.1059 4.90186C44.1303 4.94996 44.167 5.14677 44.0532 5.54642C43.9475 5.91739 43.7359 6.37681 43.4139 6.86907C42.7703 7.8529 41.7217 8.91351 40.3308 9.61869Z" fill="#EB93A3" stroke="#CC697A"/>
<path d="M32.182 9.34982C33.5403 10.314 34.5337 10.8696 35.3256 10.9851C35.7004 11.0398 36.0185 10.9932 36.3135 10.8454C36.616 10.6938 36.9301 10.4174 37.2589 9.95423C37.5873 9.49149 37.7502 9.09635 37.7988 8.74875C37.8463 8.40859 37.7895 8.07965 37.6199 7.7336C37.264 7.0072 36.4279 6.23212 35.0762 5.27262C33.8046 4.36991 32.3777 3.93572 31.2074 3.82419C30.6218 3.76839 30.1167 3.79496 29.7392 3.87418C29.3325 3.95953 29.1754 4.08361 29.1442 4.12759C29.113 4.17156 29.0477 4.3608 29.1013 4.77287C29.151 5.15537 29.2926 5.64099 29.5384 6.17537C30.0298 7.2434 30.9104 8.44711 32.182 9.34982Z" fill="#EB93A3" stroke="#CC697A"/>
<defs>
<filter id="filter0_f_158_739" x="0" y="80.0841" width="70.056" height="15.8633" filterUnits="userSpaceOnUse" color-interpolation-filters="sRGB">
<feFlood flood-opacity="0" result="BackgroundImageFix"/>
<feBlend mode="normal" in="SourceGraphic" in2="BackgroundImageFix" result="shape"/>
<feGaussianBlur stdDeviation="0.5" result="effect1_foregroundBlur_158_739"/>
</filter>
</defs>
</svg>
